<?xml version="1.0" encoding="utf-8"?><svg viewBox="0 0 13 16" xmlns="http://www.w3.org/2000/svg" xmlns:xlink="http://www.w3.org/1999/xlink"><use xlink:href="#a" fill="#EF1C8F"/><defs><path id="a" d="M12.8 15.548c-.075-.17-.345-.914-.63-1.702-.35-.962-.744-2.052-.94-2.526-.177-.43-.716-1.45-1.287-2.532-.59-1.117-1.2-2.272-1.347-2.662-.015-.04-.12-.463.672-2.855.418-1.262.877-2.445.882-2.457l.125-.32L8.732 0l-.266 1.935-1.964.908-1.957-.935L4.29 0 2.745.492l.124.32c.004.012.458 1.193.87 2.456.785 2.395.68 2.818.664 2.858-.148.39-.756 1.54-1.344 2.656-.573 1.085-1.114 2.11-1.29 2.54-.195.47-.588 1.556-.936 2.514-.287.793-.56 1.543-.634 1.712L0 16h13l-.2-.452z"/></defs></svg>